<?xml version="1.0" encoding="UTF-8"?>
<svg width="182px" height="112px" viewBox="0 0 182 112" version="1.1" xmlns="http://www.w3.org/2000/svg" xmlns:xlink="http://www.w3.org/1999/xlink">
    <title>empty</title>
    <defs>
        <linearGradient x1="52.348%" y1="74.611%" x2="52.348%" y2="-17.635%" id="linearGradient-1">
            <stop stop-color="#DEDEDE" stop-opacity="0" offset="0%"></stop>
            <stop stop-color="#A9A9A9" stop-opacity="0.3" offset="100%"></stop>
        </linearGradient>
        <linearGradient x1="44.79%" y1="100%" x2="44.79%" y2="0%" id="linearGradient-2">
            <stop stop-color="#FFFFFF" stop-opacity="0" offset="0%"></stop>
            <stop stop-color="#96A1C5" stop-opacity="0.373" offset="100%"></stop>
        </linearGradient>
        <linearGradient x1="50%" y1="100%" x2="50%" y2="-19.675%" id="linearGradient-3">
            <stop stop-color="#FFFFFF" stop-opacity="0" offset="0%"></stop>
            <stop stop-color="#919191" stop-opacity="0.15" offset="100%"></stop>
        </linearGradient>
        <linearGradient x1="50%" y1="0%" x2="50%" y2="44.95%" id="linearGradient-4">
            <stop stop-color="#5389F5" offset="0%"></stop>
            <stop stop-color="#416FDC" offset="100%"></stop>
        </linearGradient>
        <linearGradient x1="63.345%" y1="100%" x2="63.345%" y2="-5.316%" id="linearGradient-5">
            <stop stop-color="#DCE9FF" offset="0%"></stop>
            <stop stop-color="#B6CFFF" offset="100%"></stop>
        </linearGradient>
        <linearGradient x1="50%" y1="0%" x2="50%" y2="100%" id="linearGradient-6">
            <stop stop-color="#7CA5F7" offset="0%"></stop>
            <stop stop-color="#C4D6FC" offset="100%"></stop>
        </linearGradient>
    </defs>
    <g id="统一登录零散需求_20240403" stroke="none" stroke-width="1" fill="none" fill-rule="evenodd">
        <g id="06-1/权限审批_暂无数据" transform="translate(-1108, -500)" fill-rule="nonzero">
            <g id="empty" transform="translate(1108, 500)">
                <path d="M36.4660975,20.9362995 C38.3337031,15.0320742 40.0717313,11.3560178 41.6773651,9.90672204 C46.123844,5.89545443 52.2717313,8.07855302 53.5787736,8.39122908 C58.1703229,9.49263753 56.6773651,2.24475021 60.6168017,0.77151077 C63.2421538,-0.210179371 65.4013088,0.989820629 67.095675,4.37151077 C68.595675,1.21658119 70.8815905,-0.22848923 73.9534214,0.0292572492 C78.5618721,0.419398094 80.1745482,15.9841868 86.5069426,12.5771446 C92.8407454,9.16869387 100.605534,8.38982063 103.922436,13.4546094 C104.639337,14.550384 104.913985,12.850384 109.790041,7.04615866 C114.666097,1.24052485 119.528069,-1.31722162 129.502717,2.06306007 C134.037928,3.59827133 137.767506,7.76024316 140.695675,14.5475671 C140.695675,24.2348911 147.822436,29.9701023 162.07314,31.7489756 C183.452013,34.4179896 166.857647,57.4024967 140.695675,64.1334826 C114.532295,70.865877 54.2970834,74.4996798 21.6097595,57.4912291 C-0.181789826,46.1546094 4.77032285,33.9686939 36.464689,20.9362995 L36.4660975,20.9362995 Z" id="路径" fill="url(#linearGradient-1)" opacity="0.8"></path>
                <ellipse id="椭圆形" fill="url(#linearGradient-2)" cx="90.0717313" cy="97.4179896" rx="39.4183099" ry="9.12394366"></ellipse>
                <path d="M156.621027,108.802497 C126.982999,116.2363 25.8182102,107.733483 15.0506045,103.850384 C9.80975947,101.958835 5.08581581,98.4024967 0.880182005,93.1799615 C-0.0804691624,91.9881799 -0.271349152,90.350639 0.389430884,88.9698552 C1.05021092,87.5890714 2.44520723,86.7104585 3.97595665,86.7109472 L180.756238,86.7109472 C184.425252,96.4827784 176.380182,103.846159 156.621027,108.802497 L156.621027,108.802497 Z" id="路径" fill="url(#linearGradient-3)" opacity="0.675"></path>
                <g id="编组" transform="translate(59.1985, 55.9912)">
                    <path d="M61.1211268,16.9746479 L47.6408451,1.21126761 C46.995734,0.450275011 46.0511248,0.00805187682 45.0535211,0 L16.0676056,0 C15.0732394,0 14.128169,0.456338028 13.4802817,1.21126761 L0,16.9746479 L0,25.628169 L61.1211268,25.628169 L61.1211268,16.9746479 Z" id="路径" fill="url(#linearGradient-4)"></path>
                    <path d="M57.3014085,25.9464789 L45.5028169,12.2169014 C44.9257123,11.5609525 44.0919589,11.1882822 43.2183099,11.1956638 L17.9028169,11.1956638 C17.0338028,11.1956638 16.184507,11.556338 15.6183099,12.2169014 L3.81971831,25.9464789 L3.81971831,33.4873239 L57.3014085,33.4873239 L57.3014085,25.9464789 Z" id="路径" fill="url(#linearGradient-5)"></path>
                    <path d="M61.1211268,35.5450704 C61.1211268,36.7464789 60.5802817,37.8267606 59.7267606,38.5507042 L59.5535211,38.6915493 C58.8767697,39.2044848 58.0505809,39.4815302 57.2014085,39.4802859 L3.92112676,39.4802859 C3.43943662,39.4802859 2.97887324,39.3929577 2.55352113,39.2323944 L2.34225352,39.1478873 C0.918319905,38.5143619 0,37.102168 0,35.543662 L0,17.0690141 L14.8295775,17.0690141 C16.4676056,17.0690141 17.7873239,18.4169014 17.7873239,20.0521127 L17.7873239,20.0732394 C17.7873239,21.7098592 19.1225352,23.0295775 20.7605634,23.0295775 L40.3605634,23.0295775 C41.9997998,23.0280325 43.3291488,21.7012024 43.3338028,20.0619718 C43.3338028,18.4197183 44.6549296,17.0690141 46.2915493,17.0690141 L61.1225352,17.0690141 L61.1211268,35.5450704 Z" id="路径" fill="url(#linearGradient-6)"></path>
                </g>
            </g>
        </g>
    </g>
</svg>