<?xml version="1.0" encoding="UTF-8"?>
<svg width="32px" height="32px" viewBox="0 0 32 32" version="1.1" xmlns="http://www.w3.org/2000/svg" xmlns:xlink="http://www.w3.org/1999/xlink">
    <title>技术服务</title>
    <g id="页面-1" stroke="none" stroke-width="1" fill="none" fill-rule="evenodd">
        <g id="服务-首页" transform="translate(-28.000000, -7.000000)" fill-rule="nonzero">
            <g id="技术服务" transform="translate(28.000000, 7.000000)">
                <rect id="矩形" fill="#000000" opacity="0" x="0" y="0" width="32" height="32"></rect>
                <path d="M24.0173438,25.7653125 L24.0173438,27.7653125 L8.08334375,27.7653125 L8.08334375,25.7653125 L24.0173438,25.7653125 Z M28.3333438,5.66665625 L28.3333438,22.3333437 L3.66665625,22.3333437 L3.66665625,5.66665625 L28.3333438,5.66665625 L28.3333438,5.66665625 Z M26.3333438,7.66665625 L5.66665625,7.66665625 L5.66665625,20.3333437 L26.3333438,20.3333437 L26.3333438,7.66665625 Z" id="形状" fill="#1677FF"></path>
                <polygon id="路径" fill="#21D975" points="12.8213437 9.99334375 14.236 11.4066562 11.6426562 14 14.236 16.5933437 12.8213125 18.0066562 8.8146875 14 12.821375 9.99334375"></polygon>
                <polygon id="路径" fill="#21D975" points="19.1786563 9.99334375 23.1853438 14 19.1786563 18.0066562 17.764 16.5933437 20.3573438 14 17.764 11.4066562 19.1786875 9.99334375"></polygon>
            </g>
        </g>
    </g>
</svg>